<svg width="314" height="309" viewBox="0 0 314 309" fill="none" xmlns="http://www.w3.org/2000/svg">
<path d="M0.0142376 0.102781C32.592 -0.0962927 32.592 -0.0962926 43.3708 0.942152C44.2125 1.02322 45.0545 1.1009 45.8965 1.17845C54.1215 1.94777 62.2508 3.14314 70.3658 4.68656C70.7606 4.76091 71.1554 4.83526 71.5621 4.91187C89.7705 8.40385 108.138 15.0063 122.749 26.6887C122.924 26.8286 123.099 26.9685 123.279 27.1126C139.088 39.9004 147.511 57.7355 149.778 77.8038C151.277 92.8537 149.383 108.297 145.895 122.948C144.981 122.948 144.981 122.948 144.234 122.232C143.947 121.913 143.664 121.591 143.382 121.267C143.158 121.015 143.158 121.015 142.928 120.758C142.493 120.268 142.062 119.775 141.631 119.281C141.434 119.056 141.237 118.832 141.034 118.601C140.697 118.215 140.362 117.83 140.027 117.443C139.182 116.472 138.32 115.517 137.459 114.56C137.013 114.064 136.568 113.566 136.124 113.068C133.27 109.864 130.363 106.715 127.313 103.698C126.395 102.787 125.549 101.845 124.73 100.846C124.252 100.313 123.748 99.8665 123.201 99.4048C121.301 97.7562 119.57 95.9364 117.808 94.1431C116.426 92.7445 115.034 91.3861 113.543 90.1051C112.753 89.4235 111.996 88.7095 111.233 87.9967C109.831 86.6971 108.387 85.4704 106.899 84.27C106.05 83.5702 105.224 82.851 104.4 82.1223C101.98 79.9856 99.4708 78.0011 96.8913 76.0631C96.2773 75.6009 95.6662 75.135 95.0559 74.668C87.8991 69.2068 80.4237 64.2652 72.4976 59.9975C73.4025 61.1779 74.3888 62.2411 75.4418 63.2871C75.6109 63.4563 75.7799 63.6254 75.9541 63.7997C76.3193 64.165 76.6849 64.53 77.0508 64.8946C77.6317 65.4736 78.2117 66.0536 78.7914 66.6338C80.2319 68.0751 81.674 69.5147 83.1161 70.9544C84.335 72.1713 85.5531 73.3889 86.7705 74.6072C87.3385 75.1752 87.9075 75.7423 88.4764 76.3093C90.064 77.8955 91.6381 79.475 93.0829 81.1958C93.8835 82.1261 94.7688 82.9738 95.6436 83.8331C96.9662 85.1448 98.2465 86.4659 99.4493 87.8905C99.9351 88.4488 100.446 88.9671 100.973 89.4865C101.672 90.1765 102.333 90.8799 102.972 91.6256C104.049 92.88 105.174 94.0854 106.303 95.2926C107.754 96.8471 109.189 98.4083 110.567 100.029C110.833 100.341 111.1 100.653 111.366 100.965C111.828 101.505 112.289 102.046 112.75 102.586C113.745 103.753 114.746 104.914 115.751 106.072C117.512 108.102 119.239 110.155 120.921 112.253C121.198 112.593 121.475 112.934 121.752 113.274C126.132 118.687 130.21 124.307 133.732 130.32C133.877 130.567 134.023 130.813 134.173 131.067C134.307 131.3 134.441 131.534 134.58 131.774C134.699 131.98 134.819 132.186 134.942 132.399C135.293 133.156 135.48 133.722 135.54 134.56C135.202 135.466 135.202 135.466 134.68 136.463C134.588 136.643 134.495 136.823 134.4 137.008C134.105 137.582 133.805 138.153 133.503 138.724C133.112 139.471 132.724 140.22 132.339 140.97C132.245 141.152 132.15 141.334 132.054 141.521C131.337 142.93 130.798 144.357 130.335 145.867C130.244 146.069 130.152 146.27 130.058 146.478C129.233 146.754 128.669 146.839 127.814 146.878C127.414 146.897 127.414 146.897 127.006 146.916C126.719 146.928 126.432 146.94 126.136 146.952C125.836 146.965 125.537 146.977 125.228 146.991C122.174 147.113 119.122 147.145 116.065 147.151C115.776 147.152 115.486 147.153 115.188 147.154C113.65 147.159 112.112 147.161 110.574 147.163C109.337 147.164 108.101 147.168 106.865 147.175C100.193 147.212 93.5541 147.136 86.8961 146.67C86.6266 146.652 86.3571 146.633 86.0794 146.613C64.1778 145.05 37.942 141.069 22.6641 123.55C5.69623 102.233 4.49686 62.87 0.372306 13.8293C0.323405 13.0143 0.271787 12.1995 0.219602 11.3847C-0.0109669 7.62344 -0.0186851 3.87023 0.0142376 0.102781Z" fill="url(#paint0_linear_61_24)"/>
<path d="M304.871 140.061C305.12 140.283 305.369 140.505 305.626 140.734C310.264 145.098 312.766 151.227 313.093 157.551C313.1 164.609 310.634 170.825 305.701 175.918C301.035 180.35 295.224 182.669 288.825 182.633C288.534 182.632 288.243 182.632 287.944 182.631C285.811 182.603 283.849 182.34 281.783 181.821C278.044 181.049 274.773 182.704 271.675 184.676C270.276 185.717 268.987 186.846 267.716 188.038C267.516 188.224 267.317 188.411 267.111 188.603C263.318 192.195 258.77 196.653 258.205 202.165C258.147 204.209 258.612 205.698 259.417 207.557C263.134 216.852 262.965 226.836 259.088 236.03C257.945 238.814 257.894 240.899 258.845 243.769C261.882 250.921 268.726 257.2 275.634 260.48C278.267 261.503 280.969 261.319 283.658 260.62C289.992 259.375 296.71 260.594 302.13 264.128C303.193 264.894 304.192 265.708 305.175 266.573C305.49 266.845 305.49 266.845 305.811 267.122C310.05 271.057 312.637 277.077 312.892 282.838C313 289.285 311.576 295.185 307.307 300.187C307.163 300.379 307.019 300.57 306.871 300.768C303.324 305.258 297.364 308.094 291.775 308.744C284.687 309.15 278.033 307.664 272.554 302.857C267.765 298.481 264.885 292.633 264.404 286.131C264.294 283.578 264.462 280.97 265.141 278.496C265.846 275.349 265.264 272.419 263.756 269.629C263.609 269.354 263.461 269.078 263.309 268.795C262.165 266.845 260.751 265.232 259.188 263.617C258.471 262.873 257.996 262.374 257.665 261.378C257.264 261.165 256.857 260.962 256.447 260.767C256.001 260.336 256.001 260.336 255.552 259.831C252.723 256.913 248.615 254.1 244.474 253.91C242.448 253.923 240.848 254.598 239.028 255.391C234.835 257.205 230.463 257.827 225.935 257.807C225.544 257.805 225.154 257.804 224.752 257.802C219.641 257.739 215.058 256.646 210.384 254.56C208.085 253.631 206.049 253.778 203.76 254.674C200.321 256.27 197.622 258.451 194.928 261.073C194.77 261.223 194.612 261.373 194.45 261.528C190.756 265.051 186.796 269.551 186.096 274.824C186.121 276.085 186.271 277.302 186.547 278.533C188.044 285.332 186.981 292.131 183.355 298.048C179.504 303.632 173.96 307.211 167.361 308.623C160.711 309.688 154.19 308.264 148.652 304.461C147.905 303.879 147.201 303.273 146.504 302.632C146.296 302.452 146.088 302.271 145.874 302.085C143.037 299.467 141.028 295.88 139.804 292.242C139.707 291.961 139.61 291.679 139.51 291.389C137.687 285.008 138.75 278.035 141.876 272.285C144.972 266.898 150.257 262.714 156.249 261.073C158.463 260.52 160.578 260.354 162.854 260.366C163.334 260.366 163.334 260.366 163.824 260.366C166.058 260.393 168.05 260.682 170.226 261.188C173.385 261.822 176.583 260.588 179.238 258.893C184.909 255.057 191.965 248.802 193.405 241.821C193.63 239.411 193.222 237.615 192.263 235.423C188.648 226.429 188.74 216.634 192.187 207.595C192.417 207.115 192.651 206.638 192.891 206.163C193.872 204.02 193.656 201.697 192.948 199.497C191.709 196.478 189.738 194.005 187.495 191.68C186.814 190.971 186.411 190.515 186.096 189.566C185.694 189.352 185.288 189.149 184.877 188.954C184.41 188.513 184.41 188.513 183.945 187.999C180.94 184.921 176.746 182.167 172.415 181.62C171.362 181.62 170.465 181.801 169.44 182.041C162.547 183.627 155.561 182.579 149.549 178.87C143.92 174.962 140.257 169.278 139.005 162.555C138.043 155.879 139.51 149.345 143.477 143.881C143.772 143.521 144.07 143.164 144.372 142.811C144.523 142.616 144.674 142.421 144.83 142.22C148.394 137.8 154.013 134.966 159.6 134.255C166.676 133.814 173.236 134.989 178.738 139.762C178.955 139.962 179.172 140.161 179.395 140.366C179.603 140.547 179.811 140.727 180.025 140.913C184.573 145.111 186.93 151.346 187.294 157.43C187.383 159.785 187.163 162.228 186.538 164.503C185.659 168.425 186.88 171.679 188.856 175.012C191.353 178.796 194.557 182.29 198.182 185.001C198.393 185.159 198.604 185.317 198.821 185.48C201.996 187.81 205.209 189.543 209.242 188.954C210.236 188.627 211.192 188.221 212.154 187.809C221.152 184.002 231.188 184.283 240.208 187.925C240.818 188.177 241.425 188.433 242.03 188.697C244.509 189.594 247.137 188.772 249.442 187.732C256.351 183.861 263.038 177.127 265.381 169.451C265.76 167.635 265.571 166.117 265.127 164.336C263.66 157.633 264.703 150.767 268.325 144.95C269.17 143.757 270.078 142.665 271.066 141.589C271.312 141.3 271.312 141.3 271.563 141.005C275.404 136.754 281.619 134.348 287.218 133.969C293.647 133.825 300.05 135.651 304.871 140.061Z" fill="url(#paint1_linear_61_24)"/>
<path d="M94.6782 159.864C95.7983 159.867 96.9185 159.867 98.0386 159.867C99.1305 159.867 100.222 159.869 101.314 159.871C101.829 159.872 102.344 159.873 102.859 159.873C105.543 159.875 108.202 159.909 110.871 160.229C109.151 162.31 107.316 164.256 105.263 166.009C103.511 167.545 101.882 169.205 100.239 170.857C99.8928 171.204 99.5463 171.552 99.1998 171.899C98.4773 172.624 97.7553 173.349 97.0336 174.074C96.1145 174.998 95.1941 175.921 94.2732 176.843C93.5586 177.559 92.8446 178.275 92.1309 178.992C91.7921 179.333 91.4529 179.673 91.1136 180.012C89.4627 181.666 87.8278 183.321 86.3162 185.106C85.7063 185.816 85.0443 186.467 84.3752 187.121C83.3009 188.188 82.2817 189.274 81.2999 190.426C80.7184 191.096 80.1205 191.749 79.5182 192.4C77.8104 194.247 76.1902 196.146 74.6295 198.122C74.5042 198.278 74.3789 198.435 74.2499 198.596C70.7969 202.854 70.7969 202.854 68.843 207.901C69.7449 207.243 70.4936 206.551 71.2033 205.696C72.8489 203.789 74.6488 202.03 76.4282 200.25C77.0454 199.632 77.661 199.013 78.2764 198.394C80.1553 196.507 82.0284 194.637 84.0706 192.927C84.3783 192.659 84.6856 192.391 84.9926 192.122C96.5633 182.18 109.624 174.105 123.32 167.468C123.678 167.294 124.037 167.12 124.407 166.94C126.934 165.73 126.934 165.73 127.622 165.73C134.272 181.61 136.234 199.606 129.753 215.846C127.446 221.459 124.229 226.217 120.312 230.82C120.079 231.098 119.845 231.376 119.604 231.662C118.323 233.153 116.95 234.455 115.439 235.709C115.218 235.904 114.997 236.098 114.77 236.299C101.175 247.888 76.8906 248.376 59.8664 249.413C59.1095 249.46 58.3528 249.508 57.5961 249.557C43.4057 250.448 29.1473 250.129 14.9373 250.071C14.7129 248.859 14.5923 247.707 14.5837 246.474C14.5808 246.132 14.5779 245.79 14.5749 245.438C14.5736 245.071 14.5723 244.703 14.5709 244.325C14.5687 243.94 14.5666 243.555 14.5644 243.159C14.5591 241.911 14.557 240.662 14.5566 239.414C14.5565 239.202 14.5563 238.991 14.5562 238.772C14.5541 232.412 14.6211 226.124 15.5464 219.819C15.5987 219.454 15.6509 219.09 15.7048 218.715C16.0898 216.114 16.5535 213.534 17.0692 210.957C17.1773 210.412 17.1773 210.412 17.2876 209.857C19.0646 201.138 21.7555 192.408 25.5966 184.371C25.758 184.033 25.9193 183.695 26.0856 183.346C27.1095 181.347 28.4103 179.66 29.8603 177.953C30.0303 177.735 30.2003 177.516 30.3755 177.291C39.3396 166.244 56.4028 162.827 69.6234 161.07C69.9679 161.024 70.3124 160.977 70.6674 160.93C71.885 160.779 73.1037 160.652 74.325 160.535C74.6004 160.508 74.8759 160.481 75.1598 160.454C81.6652 159.844 88.1506 159.839 94.6782 159.864Z" fill="url(#paint2_linear_61_24)"/>
<path d="M241.524 58.7752C241.591 61.9275 241.393 65.0495 241.162 68.191C241.133 68.598 241.133 68.598 241.102 69.0132C239.781 86.8091 237.955 110.49 223.555 122.948C219.807 125.708 215.99 126.961 211.391 126.983C211.092 126.985 210.792 126.987 210.484 126.989C209.505 126.995 208.526 126.996 207.547 126.997C207.046 126.998 207.046 126.998 206.535 126.998C182.536 126.983 182.536 126.983 175.436 122.337C177.005 119.672 178.845 117.307 180.795 114.917C181.369 114.212 181.933 113.5 182.498 112.787C182.69 112.547 182.882 112.308 183.08 112.06C183.477 111.563 183.873 111.064 184.267 110.563C185.796 108.647 187.417 106.846 189.1 105.065C189.988 104.124 190.857 103.174 191.7 102.192C192.865 100.847 194.106 99.586 195.365 98.3293C195.582 98.1105 195.799 97.8917 196.023 97.6662C197.434 96.2523 198.891 94.9099 200.41 93.6119C192.935 97.2845 186.045 102.935 179.7 108.28C179.54 108.413 179.379 108.546 179.214 108.684C174.85 112.316 170.026 116.383 167.306 121.469C166.604 122.337 166.604 122.337 165.599 122.545C165.21 122.535 164.821 122.526 164.42 122.516C164.212 122.513 164.004 122.511 163.79 122.508C163.129 122.498 162.469 122.475 161.808 122.451C161.358 122.442 160.909 122.434 160.46 122.426C159.36 122.406 158.262 122.375 157.163 122.337C156.842 82.2638 156.842 82.2638 166.928 71.7243C170.297 68.5782 173.957 67.7957 178.387 66.9878C178.632 66.9428 178.876 66.8979 179.129 66.8516C191.642 64.5731 204.276 62.9901 216.893 61.4299C217.151 61.3981 217.408 61.3662 217.673 61.3334C223.15 60.6562 228.629 59.9989 234.113 59.3791C234.592 59.3249 235.072 59.2703 235.551 59.2154C236.213 59.14 236.875 59.0659 237.536 58.9922C237.911 58.9501 238.285 58.908 238.671 58.8646C239.628 58.7811 240.563 58.7584 241.524 58.7752Z" fill="url(#paint3_linear_61_24)"/>
<path d="M235.566 146.106C238.596 148.611 240.355 152.012 241.143 155.837C241.501 160.686 240.478 164.96 237.336 168.767C234.296 171.929 230.258 173.602 225.916 173.732C221.856 173.65 217.91 172.239 214.947 169.374C211.775 165.84 210.372 161.928 210.46 157.174C210.746 153.334 212.329 149.821 215.028 147.089C221.109 141.88 228.998 141.29 235.566 146.106Z" fill="url(#paint4_linear_61_24)"/>
<path d="M236.404 273.296C239.552 276.294 241.185 280.305 241.315 284.641C241.294 285.138 241.262 285.635 241.22 286.131C241.188 286.519 241.188 286.519 241.155 286.916C240.653 290.756 238.606 294.305 235.675 296.783C232.107 299.49 228.109 300.565 223.665 300.062C219.422 299.279 215.832 297.38 213.326 293.825C210.83 289.955 209.985 285.804 210.764 281.241C211.698 277.692 213.722 274.11 216.855 272.074C223.465 268.293 230.326 268.287 236.404 273.296Z" fill="url(#paint5_linear_61_24)"/>
<path d="M172.415 209.251C175.578 211.957 177.491 215.073 178.177 219.207C178.529 224.117 177.357 228.305 174.161 232.099C171.207 235.259 167.33 236.709 163.083 237.008C158.336 236.924 154.633 235.089 151.377 231.736C148.072 228.137 147.534 223.942 147.682 219.276C147.762 217.917 148.075 216.773 148.636 215.54C148.755 215.269 148.874 214.998 148.996 214.719C150.854 210.917 154.027 208.138 158.001 206.736C162.965 205.263 168.304 206.011 172.415 209.251Z" fill="url(#paint6_linear_61_24)"/>
<path d="M298.837 209.467C301.543 211.973 303.763 215.455 303.995 219.212C304.191 224.937 304.191 224.937 303.044 227.458C302.925 227.729 302.806 228 302.683 228.279C301.097 231.526 298.46 234.268 295.125 235.709C290.759 237.203 286.694 237.423 282.336 235.642C278.148 233.499 275.745 230.365 274.039 226.059C272.818 222.165 273.416 217.971 275.044 214.299C277.178 210.317 280.456 208.063 284.605 206.606C289.662 205.086 294.563 206.608 298.837 209.467Z" fill="url(#paint7_linear_61_24)"/>
<defs>
<linearGradient id="paint0_linear_61_24" x1="0" y1="0" x2="313.057" y2="308.942" gradientUnits="userSpaceOnUse">
<stop stop-color="#3B82F6"/>
<stop offset="1" stop-color="#51A2FF"/>
</linearGradient>
<linearGradient id="paint1_linear_61_24" x1="0" y1="0" x2="313.057" y2="308.942" gradientUnits="userSpaceOnUse">
<stop stop-color="#3B82F6"/>
<stop offset="1" stop-color="#51A2FF"/>
</linearGradient>
<linearGradient id="paint2_linear_61_24" x1="0" y1="0" x2="313.057" y2="308.942" gradientUnits="userSpaceOnUse">
<stop stop-color="#3B82F6"/>
<stop offset="1" stop-color="#51A2FF"/>
</linearGradient>
<linearGradient id="paint3_linear_61_24" x1="0" y1="0" x2="313.057" y2="308.942" gradientUnits="userSpaceOnUse">
<stop stop-color="#3B82F6"/>
<stop offset="1" stop-color="#51A2FF"/>
</linearGradient>
<linearGradient id="paint4_linear_61_24" x1="0" y1="0" x2="313.057" y2="308.942" gradientUnits="userSpaceOnUse">
<stop stop-color="#3B82F6"/>
<stop offset="1" stop-color="#51A2FF"/>
</linearGradient>
<linearGradient id="paint5_linear_61_24" x1="0" y1="0" x2="313.057" y2="308.942" gradientUnits="userSpaceOnUse">
<stop stop-color="#3B82F6"/>
<stop offset="1" stop-color="#51A2FF"/>
</linearGradient>
<linearGradient id="paint6_linear_61_24" x1="0" y1="0" x2="313.057" y2="308.942" gradientUnits="userSpaceOnUse">
<stop stop-color="#3B82F6"/>
<stop offset="1" stop-color="#51A2FF"/>
</linearGradient>
<linearGradient id="paint7_linear_61_24" x1="0" y1="0" x2="313.057" y2="308.942" gradientUnits="userSpaceOnUse">
<stop stop-color="#3B82F6"/>
<stop offset="1" stop-color="#51A2FF"/>
</linearGradient>
</defs>
</svg>
