<svg width="1438" height="309" viewBox="0 0 1438 309" fill="none" xmlns="http://www.w3.org/2000/svg">
<path d="M0.0142376 0.102781C32.592 -0.0962927 32.592 -0.0962926 43.3708 0.942152C44.2125 1.02322 45.0545 1.1009 45.8965 1.17845C54.1215 1.94777 62.2508 3.14314 70.3658 4.68656C70.7606 4.76091 71.1554 4.83526 71.5621 4.91187C89.7705 8.40385 108.138 15.0063 122.749 26.6887C122.924 26.8286 123.099 26.9685 123.279 27.1126C139.088 39.9004 147.511 57.7355 149.778 77.8038C151.277 92.8537 149.383 108.297 145.895 122.948C144.981 122.948 144.981 122.948 144.234 122.232C143.947 121.913 143.664 121.591 143.382 121.267C143.158 121.015 143.158 121.015 142.928 120.758C142.493 120.268 142.062 119.775 141.631 119.281C141.434 119.056 141.237 118.832 141.034 118.601C140.697 118.215 140.362 117.83 140.027 117.443C139.182 116.472 138.32 115.517 137.459 114.56C137.013 114.064 136.568 113.566 136.124 113.068C133.27 109.864 130.363 106.715 127.313 103.698C126.395 102.787 125.549 101.845 124.73 100.846C124.252 100.313 123.748 99.8665 123.201 99.4048C121.301 97.7562 119.57 95.9364 117.808 94.1431C116.426 92.7445 115.034 91.3861 113.543 90.1051C112.753 89.4235 111.996 88.7095 111.233 87.9967C109.831 86.6971 108.387 85.4704 106.899 84.27C106.05 83.5702 105.224 82.851 104.4 82.1223C101.98 79.9856 99.4708 78.0011 96.8913 76.0631C96.2773 75.6009 95.6662 75.135 95.0559 74.668C87.8991 69.2068 80.4237 64.2652 72.4976 59.9975C73.4025 61.1779 74.3888 62.2411 75.4418 63.2871C75.6109 63.4562 75.7799 63.6254 75.9541 63.7997C76.3193 64.165 76.6849 64.53 77.0508 64.8946C77.6317 65.4736 78.2117 66.0536 78.7914 66.6338C80.2319 68.0751 81.674 69.5147 83.1161 70.9544C84.335 72.1713 85.5531 73.3889 86.7705 74.6072C87.3385 75.1752 87.9074 75.7423 88.4764 76.3093C90.064 77.8955 91.6381 79.475 93.0829 81.1958C93.8835 82.1261 94.7688 82.9738 95.6436 83.8331C96.9662 85.1448 98.2465 86.4659 99.4493 87.8905C99.9351 88.4488 100.446 88.9671 100.973 89.4865C101.672 90.1765 102.333 90.8799 102.972 91.6256C104.049 92.88 105.174 94.0854 106.303 95.2926C107.754 96.8471 109.189 98.4083 110.567 100.029C110.833 100.341 111.1 100.653 111.366 100.965C111.828 101.505 112.289 102.046 112.75 102.586C113.745 103.753 114.746 104.914 115.751 106.072C117.512 108.102 119.239 110.155 120.921 112.253C121.198 112.593 121.475 112.934 121.752 113.274C126.132 118.687 130.21 124.307 133.732 130.32C133.877 130.567 134.023 130.813 134.173 131.067C134.307 131.3 134.441 131.534 134.58 131.774C134.699 131.98 134.819 132.186 134.942 132.399C135.293 133.156 135.48 133.722 135.54 134.56C135.202 135.466 135.202 135.466 134.68 136.463C134.588 136.643 134.495 136.823 134.4 137.008C134.105 137.582 133.805 138.153 133.503 138.724C133.112 139.471 132.724 140.22 132.339 140.97C132.245 141.152 132.15 141.334 132.054 141.521C131.337 142.93 130.798 144.357 130.335 145.867C130.244 146.069 130.152 146.27 130.058 146.478C129.233 146.754 128.669 146.839 127.814 146.878C127.414 146.897 127.414 146.897 127.006 146.916C126.719 146.928 126.432 146.94 126.136 146.952C125.836 146.965 125.537 146.977 125.228 146.991C122.174 147.113 119.122 147.145 116.065 147.151C115.776 147.152 115.486 147.153 115.188 147.154C113.65 147.159 112.112 147.161 110.574 147.163C109.337 147.164 108.101 147.168 106.865 147.175C100.193 147.212 93.5541 147.136 86.8961 146.67C86.6266 146.652 86.3571 146.633 86.0794 146.613C64.1778 145.05 37.942 141.069 22.6641 123.55C5.69623 102.233 4.49686 62.87 0.372306 13.8293C0.323405 13.0143 0.271787 12.1995 0.219602 11.3847C-0.0109669 7.62344 -0.0186851 3.87023 0.0142376 0.102781Z" fill="url(#paint0_linear_58_3)"/>
<path d="M304.871 140.061C305.12 140.283 305.369 140.505 305.626 140.734C310.264 145.098 312.766 151.227 313.093 157.551C313.1 164.609 310.634 170.825 305.701 175.918C301.035 180.35 295.224 182.669 288.825 182.633C288.534 182.632 288.243 182.632 287.944 182.631C285.811 182.603 283.849 182.34 281.783 181.821C278.044 181.049 274.773 182.704 271.675 184.676C270.276 185.717 268.987 186.846 267.716 188.038C267.516 188.224 267.317 188.411 267.111 188.603C263.318 192.195 258.77 196.653 258.205 202.165C258.147 204.209 258.612 205.698 259.416 207.557C263.134 216.852 262.965 226.836 259.088 236.03C257.945 238.814 257.894 240.899 258.845 243.769C261.882 250.921 268.726 257.2 275.634 260.481C278.267 261.503 280.969 261.319 283.658 260.62C289.992 259.375 296.71 260.595 302.13 264.128C303.193 264.894 304.192 265.708 305.175 266.573C305.49 266.845 305.49 266.845 305.811 267.122C310.05 271.057 312.637 277.077 312.892 282.838C313 289.285 311.576 295.185 307.307 300.187C307.163 300.379 307.019 300.57 306.871 300.768C303.324 305.258 297.364 308.094 291.775 308.744C284.687 309.15 278.032 307.664 272.554 302.857C267.765 298.481 264.885 292.633 264.404 286.131C264.294 283.578 264.462 280.97 265.141 278.496C265.846 275.349 265.264 272.419 263.756 269.629C263.609 269.354 263.461 269.078 263.309 268.795C262.165 266.845 260.751 265.232 259.188 263.617C258.471 262.873 257.996 262.374 257.665 261.378C257.264 261.165 256.857 260.962 256.447 260.767C256.001 260.336 256.001 260.336 255.552 259.831C252.723 256.913 248.615 254.1 244.474 253.91C242.448 253.923 240.848 254.598 239.028 255.391C234.835 257.205 230.463 257.827 225.935 257.807C225.544 257.805 225.154 257.804 224.752 257.802C219.641 257.739 215.058 256.646 210.384 254.56C208.085 253.631 206.049 253.778 203.76 254.674C200.321 256.27 197.623 258.451 194.928 261.073C194.77 261.223 194.612 261.373 194.45 261.528C190.756 265.051 186.796 269.551 186.096 274.824C186.121 276.085 186.271 277.302 186.547 278.533C188.044 285.332 186.981 292.131 183.355 298.048C179.504 303.632 173.96 307.211 167.361 308.623C160.711 309.688 154.19 308.264 148.652 304.461C147.905 303.879 147.201 303.273 146.504 302.632C146.296 302.452 146.088 302.271 145.874 302.085C143.037 299.467 141.028 295.88 139.804 292.242C139.707 291.961 139.61 291.679 139.51 291.389C137.687 285.008 138.75 278.035 141.876 272.285C144.972 266.898 150.257 262.714 156.249 261.073C158.463 260.52 160.578 260.354 162.854 260.366C163.334 260.366 163.334 260.366 163.824 260.366C166.058 260.393 168.05 260.682 170.226 261.188C173.385 261.822 176.583 260.588 179.238 258.893C184.909 255.057 191.965 248.802 193.405 241.821C193.63 239.411 193.222 237.615 192.263 235.423C188.648 226.429 188.74 216.634 192.187 207.595C192.417 207.115 192.651 206.638 192.891 206.163C193.872 204.02 193.656 201.697 192.948 199.497C191.709 196.478 189.738 194.005 187.495 191.68C186.814 190.971 186.411 190.515 186.096 189.566C185.694 189.352 185.288 189.149 184.877 188.954C184.41 188.513 184.41 188.513 183.945 187.999C180.94 184.921 176.746 182.167 172.415 181.62C171.362 181.62 170.465 181.801 169.44 182.041C162.547 183.627 155.561 182.579 149.549 178.87C143.92 174.962 140.257 169.278 139.005 162.555C138.043 155.879 139.51 149.345 143.477 143.881C143.772 143.521 144.07 143.164 144.372 142.811C144.523 142.616 144.674 142.421 144.83 142.22C148.394 137.8 154.013 134.966 159.6 134.255C166.676 133.814 173.236 134.989 178.738 139.762C178.955 139.962 179.172 140.161 179.395 140.366C179.603 140.547 179.811 140.727 180.025 140.913C184.573 145.111 186.93 151.346 187.294 157.43C187.383 159.785 187.163 162.228 186.538 164.503C185.659 168.425 186.88 171.679 188.856 175.012C191.353 178.796 194.557 182.29 198.182 185.001C198.393 185.159 198.604 185.317 198.821 185.48C201.996 187.81 205.209 189.543 209.242 188.954C210.236 188.627 211.192 188.221 212.154 187.809C221.152 184.002 231.188 184.283 240.208 187.925C240.818 188.177 241.425 188.433 242.03 188.697C244.509 189.594 247.137 188.772 249.442 187.732C256.351 183.861 263.038 177.127 265.381 169.451C265.76 167.635 265.571 166.117 265.127 164.336C263.66 157.633 264.703 150.767 268.325 144.95C269.17 143.757 270.078 142.665 271.066 141.589C271.312 141.3 271.312 141.3 271.563 141.005C275.404 136.754 281.619 134.348 287.218 133.969C293.647 133.825 300.05 135.651 304.871 140.061Z" fill="url(#paint1_linear_58_3)"/>
<path d="M548.513 154.423C557.357 154.423 566.201 154.423 575.313 154.423C576.684 157.173 576.684 157.173 577.119 158.237C577.218 158.478 577.317 158.72 577.419 158.968C577.575 159.351 577.575 159.351 577.734 159.741C577.847 160.016 577.959 160.29 578.075 160.573C578.443 161.47 578.81 162.368 579.177 163.266C579.436 163.899 579.696 164.531 579.955 165.163C580.353 166.134 580.751 167.105 581.149 168.076C582.304 170.892 583.464 173.706 584.628 176.519C584.947 177.29 585.266 178.062 585.584 178.833C586.541 181.146 587.498 183.46 588.455 185.773C589.753 188.905 591.047 192.04 592.339 195.175C592.677 195.995 593.016 196.814 593.355 197.634C595.933 203.879 598.46 210.14 600.857 216.457C600.96 216.726 601.062 216.994 601.167 217.271C604.246 225.387 604.246 225.387 604.246 226.847C604.547 226.847 604.849 226.847 605.159 226.847C605.193 226.677 605.227 226.508 605.262 226.333C605.603 224.703 606.051 223.168 606.632 221.61C606.716 221.382 606.8 221.153 606.886 220.917C607.159 220.175 607.434 219.433 607.71 218.692C607.805 218.434 607.9 218.177 607.999 217.912C611.076 209.597 614.458 201.411 617.854 193.223C618.949 190.584 620.04 187.944 621.131 185.303C621.561 184.262 621.991 183.221 622.421 182.18C623.4 179.811 624.379 177.442 625.357 175.073C626.325 172.73 627.293 170.386 628.262 168.043C628.804 166.735 629.344 165.426 629.885 164.117C630.423 162.812 630.962 161.508 631.502 160.204C631.705 159.715 631.907 159.225 632.108 158.736C632.385 158.065 632.662 157.395 632.94 156.725C633.063 156.426 633.063 156.426 633.188 156.121C633.752 154.764 633.752 154.764 634.092 154.423C642.936 154.423 651.78 154.423 660.892 154.423C660.892 197.786 660.892 241.148 660.892 285.825C652.249 285.825 643.606 285.825 634.701 285.825C634.499 266.78 634.703 247.826 635.563 228.802C635.596 228.087 635.628 227.372 635.66 226.658C635.802 223.503 635.948 220.348 636.099 217.194C636.108 216.988 636.118 216.782 636.128 216.57C636.193 215.219 636.259 213.867 636.326 212.516C636.342 212.184 636.358 211.852 636.374 211.51C636.472 209.586 636.621 207.676 636.833 205.762C636.531 205.762 636.23 205.762 635.919 205.762C635.843 206.142 635.766 206.523 635.687 206.915C635.296 208.674 634.728 210.359 634.145 212.062C634.03 212.402 633.915 212.743 633.796 213.093C633.42 214.202 633.042 215.311 632.664 216.419C632.468 216.997 632.271 217.574 632.075 218.152C629.817 224.801 627.525 231.437 625.201 238.063C624.963 238.742 624.726 239.42 624.489 240.099C619.261 255.082 619.261 255.082 617.95 257.711C609.207 257.711 600.463 257.711 591.454 257.711C590.461 255.318 589.501 252.94 588.619 250.507C588.498 250.173 588.376 249.839 588.251 249.494C587.852 248.395 587.454 247.295 587.057 246.194C586.918 245.809 586.779 245.423 586.639 245.038C584.057 237.885 581.601 230.693 579.189 223.481C579.123 223.286 579.058 223.09 578.991 222.889C578.667 221.922 578.344 220.955 578.022 219.988C577.323 217.897 576.615 215.81 575.894 213.726C575.777 213.387 575.777 213.387 575.657 213.042C575.279 211.946 574.899 210.85 574.516 209.756C574.38 209.362 574.244 208.969 574.108 208.575C573.987 208.231 573.867 207.886 573.743 207.53C573.486 206.678 573.486 206.678 573.486 205.762C573.184 205.762 572.883 205.762 572.572 205.762C572.592 205.987 572.612 206.212 572.633 206.444C572.817 208.576 572.956 210.706 573.051 212.844C573.066 213.167 573.081 213.49 573.096 213.822C573.145 214.892 573.193 215.962 573.24 217.032C573.256 217.409 573.273 217.785 573.29 218.173C573.407 220.86 573.52 223.548 573.63 226.236C573.657 226.884 573.684 227.533 573.711 228.181C574.28 242 574.538 255.799 574.495 269.629C574.494 269.835 574.493 270.041 574.493 270.254C574.476 275.444 574.44 280.635 574.4 285.825C565.857 285.825 557.314 285.825 548.513 285.825C548.513 242.462 548.513 199.1 548.513 154.423Z" fill="url(#paint2_linear_58_3)"/>
<path d="M442.224 154.423C450.767 154.423 459.309 154.423 468.111 154.423C468.129 159.026 468.148 163.628 468.157 168.23C468.162 170.708 468.168 173.186 468.18 175.664C468.251 190.937 467.797 206.127 466.417 221.346C466.352 222.088 466.288 222.829 466.225 223.57C465.957 226.652 465.674 229.731 465.342 232.806C465.319 233.029 465.295 233.252 465.271 233.482C465.171 234.374 465.045 235.16 464.761 236.015C464.962 236.015 465.163 236.015 465.37 236.015C465.41 235.793 465.45 235.571 465.491 235.343C465.665 234.529 465.896 233.787 466.177 233.005C466.281 232.717 466.384 232.429 466.49 232.133C466.659 231.668 466.659 231.668 466.831 231.194C466.948 230.87 467.065 230.545 467.186 230.21C467.569 229.152 467.954 228.095 468.339 227.038C468.471 226.677 468.603 226.315 468.738 225.943C470.733 220.481 472.807 215.083 475.142 209.758C475.448 209.06 475.752 208.361 476.056 207.662C477.226 204.976 478.401 202.293 479.579 199.611C480.69 197.082 481.79 194.548 482.882 192.01C484.417 188.446 485.969 184.889 487.526 181.334C489.263 177.367 490.999 173.4 492.725 169.429C492.932 168.953 493.139 168.478 493.346 168.002C495.311 163.485 497.24 158.954 499.175 154.423C507.919 154.423 516.663 154.423 525.671 154.423C525.671 197.786 525.671 241.148 525.671 285.825C517.028 285.825 508.385 285.825 499.48 285.825C499.455 277.729 499.455 277.729 499.45 274.154C499.446 271.757 499.442 269.361 499.434 266.965C499.369 248.222 500 229.516 501.65 210.842C501.676 210.544 501.702 210.246 501.729 209.939C501.804 209.104 501.88 208.27 501.957 207.435C501.979 207.189 502.001 206.943 502.024 206.69C502.123 205.64 502.253 204.641 502.525 203.623C502.324 203.623 502.123 203.623 501.916 203.623C501.887 203.814 501.857 204.006 501.826 204.203C501.524 205.536 501.065 206.801 500.61 208.089C500.457 208.526 500.457 208.526 500.301 208.971C499.965 209.927 499.627 210.881 499.289 211.835C499.116 212.326 499.116 212.326 498.939 212.826C495.806 221.673 492.52 230.443 488.758 239.041C488.116 240.509 487.48 241.98 486.844 243.45C485.807 245.848 484.769 248.245 483.729 250.642C482.302 253.93 480.877 257.219 479.452 260.508C479.076 261.376 478.7 262.243 478.324 263.11C477.139 265.845 475.954 268.581 474.77 271.316C474.214 272.603 473.657 273.889 473.1 275.175C472.836 275.786 472.572 276.396 472.307 277.007C471.94 277.856 471.573 278.706 471.205 279.555C471.099 279.8 470.993 280.045 470.884 280.298C470.081 282.151 469.249 283.985 468.415 285.825C459.772 285.825 451.129 285.825 442.224 285.825C442.224 242.462 442.224 199.1 442.224 154.423Z" fill="url(#paint3_linear_58_3)"/>
<path d="M976.713 154.423C985.557 154.423 994.401 154.423 1003.51 154.423C1003.51 189.416 1003.51 224.408 1003.51 260.461C1012.16 260.461 1020.8 260.461 1029.7 260.461C1029.7 225.469 1029.7 190.476 1029.7 154.423C1038.55 154.423 1047.39 154.423 1056.51 154.423C1056.51 189.416 1056.51 224.408 1056.51 260.461C1060.53 260.461 1064.55 260.461 1068.69 260.461C1068.69 276.193 1068.69 291.924 1068.69 308.133C1059.94 308.133 1051.2 308.133 1042.19 308.133C1042.19 300.771 1042.19 293.41 1042.19 285.825C1020.58 285.825 998.976 285.825 976.713 285.825C976.713 242.462 976.713 199.1 976.713 154.423Z" fill="url(#paint4_linear_58_3)"/>
<path d="M94.6782 159.864C95.7983 159.867 96.9185 159.867 98.0386 159.867C99.1305 159.867 100.222 159.869 101.314 159.871C101.829 159.872 102.344 159.873 102.859 159.873C105.543 159.875 108.202 159.909 110.871 160.229C109.151 162.31 107.316 164.256 105.263 166.009C103.511 167.545 101.882 169.205 100.239 170.857C99.8928 171.204 99.5463 171.552 99.1998 171.899C98.4773 172.624 97.7553 173.349 97.0336 174.074C96.1145 174.998 95.1941 175.921 94.2732 176.843C93.5586 177.559 92.8446 178.275 92.1309 178.992C91.7921 179.333 91.453 179.673 91.1136 180.012C89.4627 181.666 87.8278 183.321 86.3162 185.106C85.7063 185.816 85.0443 186.467 84.3752 187.121C83.3009 188.188 82.2817 189.274 81.2999 190.426C80.7184 191.096 80.1205 191.749 79.5183 192.4C77.8104 194.247 76.1902 196.146 74.6295 198.122C74.5042 198.278 74.3789 198.435 74.2499 198.596C70.7969 202.854 70.7969 202.854 68.843 207.901C69.7449 207.243 70.4936 206.551 71.2033 205.696C72.8489 203.789 74.6488 202.03 76.4282 200.25C77.0454 199.632 77.661 199.013 78.2764 198.394C80.1553 196.507 82.0284 194.637 84.0706 192.927C84.3783 192.659 84.6856 192.391 84.9926 192.123C96.5633 182.18 109.624 174.105 123.32 167.468C123.678 167.294 124.037 167.12 124.407 166.94C126.934 165.73 126.934 165.73 127.622 165.73C134.272 181.61 136.234 199.606 129.753 215.846C127.446 221.459 124.229 226.217 120.312 230.82C120.079 231.098 119.845 231.376 119.604 231.662C118.323 233.153 116.95 234.455 115.439 235.709C115.218 235.904 114.997 236.098 114.77 236.299C101.175 247.888 76.8906 248.376 59.8664 249.413C59.1095 249.46 58.3528 249.508 57.5961 249.557C43.4057 250.448 29.1473 250.129 14.9373 250.071C14.7129 248.859 14.5923 247.707 14.5837 246.474C14.5808 246.132 14.5779 245.79 14.5749 245.438C14.5736 245.071 14.5723 244.703 14.5709 244.325C14.5687 243.94 14.5666 243.555 14.5644 243.159C14.5591 241.911 14.557 240.662 14.5566 239.414C14.5565 239.202 14.5563 238.991 14.5562 238.772C14.5541 232.412 14.6211 226.124 15.5464 219.819C15.5987 219.454 15.6509 219.09 15.7048 218.715C16.0898 216.114 16.5535 213.534 17.0692 210.957C17.1773 210.412 17.1773 210.412 17.2876 209.857C19.0646 201.138 21.7555 192.408 25.5966 184.371C25.758 184.033 25.9193 183.695 26.0856 183.346C27.1095 181.347 28.4103 179.66 29.8603 177.953C30.0303 177.735 30.2003 177.516 30.3755 177.291C39.3396 166.244 56.4028 162.827 69.6234 161.07C69.9679 161.024 70.3124 160.977 70.6674 160.93C71.885 160.779 73.1037 160.652 74.325 160.535C74.6004 160.508 74.8759 160.481 75.1598 160.454C81.6652 159.844 88.1506 159.839 94.6782 159.864Z" fill="url(#paint5_linear_58_3)"/>
<path d="M926.462 153.201C926.718 153.26 926.974 153.319 927.238 153.38C934.647 155.155 940.835 158.532 946.258 163.896C946.499 164.134 946.74 164.372 946.988 164.617C953.195 171.13 956.045 180.218 957.222 188.954C957.259 189.234 957.259 189.234 957.298 189.518C957.607 192.142 957.574 194.77 957.575 197.407C957.577 197.95 957.578 198.493 957.58 199.036C957.584 200.505 957.586 201.974 957.587 203.443C957.588 204.364 957.589 205.285 957.591 206.206C957.595 209.098 957.598 211.99 957.599 214.882C957.6 218.202 957.606 221.521 957.614 224.841C957.621 227.418 957.624 229.996 957.624 232.574C957.625 234.108 957.626 235.641 957.632 237.175C957.678 250.8 956.732 264.323 947.476 275.129C947.308 275.338 947.141 275.547 946.968 275.762C940.364 283.789 929.714 287.159 919.762 288.174C908.262 288.934 895.788 286.95 886.766 279.242C879.916 273.195 875.937 265.678 873.85 256.833C873.79 256.581 873.729 256.329 873.667 256.07C872.644 251.459 872.465 246.744 872.477 242.039C872.476 241.508 872.475 240.978 872.474 240.448C872.471 239.026 872.472 237.605 872.474 236.184C872.476 234.685 872.474 233.185 872.473 231.686C872.472 229.17 872.474 226.654 872.477 224.138C872.48 221.244 872.479 218.35 872.476 215.456C872.473 212.955 872.472 210.454 872.474 207.953C872.475 206.467 872.475 204.98 872.473 203.494C872.471 202.095 872.473 200.696 872.476 199.298C872.477 198.79 872.477 198.282 872.475 197.773C872.464 193.233 872.71 188.643 873.698 184.199C873.75 183.963 873.801 183.727 873.854 183.484C876.129 173.51 881.398 164.298 890.123 158.677C894.333 156.064 898.804 154.311 903.62 153.201C903.84 153.15 904.061 153.099 904.287 153.047C911.228 151.535 919.549 151.582 926.462 153.201ZM904.917 182.103C900.48 186.879 900.225 192.982 900.221 199.176C900.22 199.683 900.218 200.19 900.217 200.696C900.213 202.067 900.211 203.438 900.209 204.809C900.208 205.668 900.207 206.527 900.206 207.386C900.202 210.08 900.199 212.775 900.198 215.47C900.196 218.567 900.191 221.664 900.182 224.761C900.175 227.164 900.172 229.566 900.172 231.969C900.172 233.4 900.17 234.831 900.164 236.262C900.159 237.61 900.159 238.959 900.161 240.307C900.162 240.798 900.16 241.288 900.157 241.779C900.123 247.707 900.815 253.991 905.017 258.54C908.264 261.553 912.099 262.166 916.36 262.067C917.988 261.993 919.459 261.659 920.98 261.073C921.301 260.95 921.301 260.95 921.628 260.825C924.889 259.385 927.004 256.716 928.345 253.48C929.753 249.551 929.903 245.582 929.896 241.456C929.897 240.939 929.898 240.423 929.9 239.906C929.904 238.515 929.904 237.123 929.904 235.731C929.903 234.564 929.905 233.397 929.906 232.23C929.91 229.474 929.91 226.718 929.908 223.962C929.906 221.13 929.91 218.299 929.916 215.468C929.922 213.026 929.924 210.584 929.923 208.142C929.922 206.688 929.923 205.235 929.927 203.781C929.931 202.413 929.93 201.044 929.926 199.676C929.926 199.178 929.926 198.68 929.929 198.182C929.956 192.398 929.229 186.432 925.244 181.926C919.688 176.884 910.301 176.92 904.917 182.103Z" fill="url(#paint6_linear_58_3)"/>
<path d="M1169.19 154.423C1178.03 154.423 1186.88 154.423 1195.99 154.423C1195.99 171.768 1195.99 189.113 1195.99 206.984C1204.83 206.984 1213.68 206.984 1222.79 206.984C1222.79 189.639 1222.79 172.294 1222.79 154.423C1231.64 154.423 1240.48 154.423 1249.59 154.423C1249.59 197.786 1249.59 241.148 1249.59 285.825C1240.75 285.825 1231.9 285.825 1222.79 285.825C1222.79 268.278 1222.79 250.732 1222.79 232.653C1213.95 232.653 1205.1 232.653 1195.99 232.653C1195.99 250.2 1195.99 267.747 1195.99 285.825C1187.15 285.825 1178.3 285.825 1169.19 285.825C1169.19 242.462 1169.19 199.1 1169.19 154.423Z" fill="url(#paint7_linear_58_3)"/>
<path d="M777.84 154.423C786.584 154.423 795.328 154.423 804.336 154.423C804.437 170.357 804.537 186.29 804.641 202.706C808.451 194.609 808.451 194.609 812.255 186.51C812.741 185.554 813.228 184.605 813.736 183.662C813.996 183.172 814.255 182.682 814.515 182.192C814.644 181.947 814.774 181.702 814.908 181.449C815.561 180.207 816.199 178.958 816.836 177.707C816.963 177.458 817.091 177.208 817.222 176.951C817.482 176.44 817.742 175.928 818.003 175.417C818.696 174.054 819.39 172.693 820.085 171.331C820.223 171.061 820.36 170.791 820.502 170.513C828.401 155.03 828.401 155.03 829.005 154.423C829.951 154.394 830.89 154.385 831.835 154.389C832.132 154.389 832.43 154.389 832.736 154.388C833.723 154.389 834.71 154.391 835.697 154.393C836.379 154.394 837.062 154.394 837.744 154.395C839.544 154.396 841.344 154.399 843.144 154.402C844.979 154.405 846.814 154.407 848.649 154.408C852.253 154.412 855.857 154.417 859.46 154.423C859.01 155.582 858.493 156.635 857.876 157.714C857.68 158.058 857.484 158.401 857.282 158.755C857.069 159.125 856.856 159.496 856.643 159.867C856.423 160.252 856.202 160.637 855.982 161.022C854.082 164.34 852.163 167.646 850.236 170.947C849.357 172.454 848.479 173.962 847.602 175.471C847.427 175.772 847.251 176.073 847.071 176.383C845.569 178.968 844.078 181.56 842.59 184.153C841.143 186.672 839.685 189.185 838.222 191.695C836.74 194.241 835.274 196.797 833.809 199.354C832.785 201.138 831.75 202.914 830.7 204.683C830.588 204.871 830.477 205.06 830.361 205.254C829.82 206.166 829.277 207.077 828.732 207.987C828.44 208.477 828.44 208.477 828.143 208.976C827.885 209.407 827.885 209.407 827.622 209.846C826.994 210.971 826.994 210.971 826.569 212.179C826.787 212.977 826.787 212.977 827.247 213.763C827.408 214.068 827.57 214.373 827.737 214.687C827.916 215.013 828.096 215.338 828.282 215.674C828.465 216.016 828.648 216.358 828.836 216.71C829.395 217.75 829.96 218.785 830.528 219.819C830.827 220.366 831.126 220.914 831.425 221.462C831.856 222.252 832.287 223.041 832.719 223.829C834.237 226.608 835.671 229.428 837.11 232.248C838.437 234.846 839.779 237.432 841.187 239.987C842.836 242.978 844.39 246.014 845.942 249.056C847.269 251.654 848.611 254.239 850.019 256.794C851.548 259.567 852.996 262.378 854.435 265.198C855.894 268.056 857.362 270.904 858.908 273.716C860.217 276.097 861.494 278.494 862.745 280.906C862.94 281.28 863.134 281.654 863.33 282.027C863.6 282.546 863.869 283.066 864.138 283.586C864.293 283.885 864.449 284.185 864.609 284.494C864.942 285.214 864.942 285.214 864.942 285.825C854.992 285.825 845.043 285.825 834.792 285.825C830.689 277.592 830.689 277.592 829.31 274.537C827.641 270.887 825.895 267.276 824.132 263.67C822.258 259.836 820.415 255.993 818.641 252.111C816.298 247.009 813.806 241.975 811.341 236.931C810.681 237.969 810.021 239.007 809.361 240.044C809.178 240.332 808.996 240.619 808.807 240.915C808.435 241.501 808.068 242.09 807.707 242.683C807.077 243.654 807.077 243.654 806.441 244.397C803.841 247.721 804.297 251.705 804.332 255.743C804.339 256.803 804.332 257.863 804.326 258.923C804.318 260.924 804.321 262.925 804.33 264.926C804.339 267.431 804.333 269.936 804.326 272.441C804.313 276.902 804.326 281.363 804.336 285.825C795.593 285.825 786.849 285.825 777.84 285.825C777.84 242.462 777.84 199.1 777.84 154.423Z" fill="url(#paint8_linear_58_3)"/>
<path d="M714.786 151.917C715.165 151.914 715.165 151.914 715.552 151.911C716.085 151.908 716.618 151.906 717.151 151.905C717.945 151.902 718.74 151.893 719.534 151.883C724.148 151.854 728.708 152.322 733.128 153.717C733.378 153.794 733.628 153.871 733.885 153.951C736.393 154.761 738.701 155.874 740.99 157.174C741.292 157.343 741.595 157.512 741.907 157.687C749.655 162.323 754.663 170.369 756.951 178.962C757.99 183.098 758.701 187.335 758.696 191.607C758.698 191.985 758.698 191.985 758.699 192.371C758.702 193.208 758.702 194.045 758.703 194.883C758.704 195.486 758.706 196.09 758.707 196.694C758.711 198.329 758.713 199.965 758.715 201.6C758.715 202.625 758.717 203.65 758.718 204.674C758.722 207.889 758.725 211.104 758.726 214.319C758.728 218.014 758.733 221.709 758.742 225.404C758.748 228.27 758.751 231.136 758.752 234.002C758.752 235.709 758.754 237.415 758.759 239.122C758.765 240.732 758.765 242.341 758.762 243.951C758.762 244.536 758.764 245.121 758.767 245.706C758.823 257.187 756.278 269.179 747.992 277.606C739.814 285.646 728.771 288.357 717.586 288.325C705.978 288.163 695.074 285.09 686.64 276.842C680.884 270.744 677.99 262.928 676.615 254.77C676.538 254.328 676.538 254.328 676.46 253.878C676.019 251.011 676.12 248.486 676.12 245.488C684.964 245.488 693.808 245.488 702.921 245.488C703.122 247.101 703.323 248.715 703.53 250.377C704.512 254.25 705.902 257.56 709.316 259.85C713.42 261.857 718.306 262.437 722.735 261.187C725.575 260.168 727.439 258.588 728.807 255.878C731.092 250.335 730.75 244.015 730.825 238.135C730.863 235.519 730.901 232.903 730.939 230.208C722.095 230.208 713.251 230.208 704.139 230.208C704.139 222.948 704.139 215.687 704.139 208.206C712.983 208.206 721.827 208.206 730.939 208.206C730.902 205.893 730.864 203.58 730.825 201.197C730.815 200.478 730.804 199.76 730.794 199.02C730.801 189.539 730.801 189.539 726.676 181.315C723.942 178.72 720.773 178.156 717.105 178.193C713.378 178.418 709.628 179.392 707.039 182.234C704.309 185.816 703.8 190.434 703.225 194.761C694.381 194.761 685.537 194.761 676.425 194.761C676.425 192.007 676.509 189.506 676.919 186.815C676.973 186.459 677.028 186.102 677.083 185.735C678.712 175.575 683.029 165.501 691.538 159.294C698.358 154.5 706.452 151.963 714.786 151.917Z" fill="url(#paint9_linear_58_3)"/>
<path d="M1356.49 154.423C1402.17 154.423 1402.17 154.423 1407.25 155.722C1407.52 155.788 1407.78 155.854 1408.06 155.922C1418.15 158.525 1426.56 164.506 1431.9 173.581C1436.31 181.388 1437.63 190.169 1437.61 199.02C1437.61 199.454 1437.61 199.454 1437.61 199.898C1437.6 204.406 1437.39 208.705 1436.28 213.096C1436.22 213.358 1436.15 213.621 1436.09 213.892C1434.35 220.851 1431.18 226.856 1426.23 232.042C1426.02 232.274 1425.81 232.506 1425.59 232.745C1418.89 239.847 1409.37 242.406 1400.04 243.654C1394.51 243.654 1388.99 243.654 1383.29 243.654C1383.29 257.571 1383.29 271.487 1383.29 285.825C1374.45 285.825 1365.6 285.825 1356.49 285.825C1356.49 242.462 1356.49 199.1 1356.49 154.423ZM1383.29 180.092C1383.29 192.698 1383.29 205.303 1383.29 218.291C1395.42 218.96 1395.42 218.96 1405.71 213.855C1410.06 209.213 1410.29 202.546 1410.13 196.548C1409.93 192.21 1408.71 187.985 1405.83 184.676C1405.6 184.399 1405.6 184.399 1405.38 184.116C1403.09 181.52 1399.96 180.75 1396.69 180.092C1392.27 180.092 1387.85 180.092 1383.29 180.092Z" fill="url(#paint10_linear_58_3)"/>
<path d="M340.503 154.423C350.152 154.423 359.8 154.423 369.74 154.423C371.143 157.927 371.143 157.927 372.573 161.501C373.241 163.169 373.909 164.838 374.577 166.507C375.442 168.668 376.307 170.829 377.172 172.99C377.93 174.884 378.689 176.778 379.447 178.672C379.736 179.395 380.025 180.117 380.314 180.839C380.719 181.852 381.125 182.864 381.53 183.877C381.65 184.175 381.769 184.473 381.892 184.78C382.493 186.281 383.107 187.776 383.75 189.26C383.833 189.042 383.917 188.824 384.003 188.599C386.493 182.108 389.033 175.637 391.586 169.17C392.365 167.197 393.142 165.222 393.918 163.247C394.078 162.841 394.078 162.841 394.241 162.426C394.651 161.381 395.061 160.337 395.471 159.292C395.748 158.585 396.026 157.879 396.303 157.172C396.385 156.963 396.467 156.754 396.551 156.539C397.116 155.104 397.116 155.104 397.455 154.423C407.103 154.423 416.751 154.423 426.692 154.423C426.068 156.301 425.43 158.033 424.594 159.807C424.481 160.052 424.367 160.297 424.249 160.549C424.005 161.074 423.76 161.599 423.515 162.123C422.991 163.243 422.471 164.363 421.95 165.484C421.684 166.058 421.417 166.632 421.15 167.207C419.925 169.84 418.718 172.482 417.517 175.127C417.12 176 416.723 176.873 416.326 177.746C416.228 177.962 416.13 178.178 416.028 178.401C414.97 180.727 413.905 183.049 412.84 185.372C411.017 189.349 409.203 193.33 407.401 197.317C405.423 201.693 403.417 206.056 401.405 210.417C401.19 210.884 400.976 211.351 400.762 211.819C400.318 212.792 399.866 213.757 399.383 214.712C399.241 214.999 399.098 215.286 398.951 215.581C398.829 215.815 398.708 216.048 398.582 216.289C398.004 218.397 398.909 220.272 399.808 222.138C399.923 222.385 400.039 222.632 400.158 222.887C400.536 223.693 400.918 224.496 401.3 225.3C401.565 225.865 401.83 226.43 402.094 226.995C402.496 227.854 402.899 228.713 403.302 229.572C404.492 232.103 405.652 234.648 406.801 237.199C407.17 238.017 407.54 238.836 407.909 239.654C408.001 239.856 408.092 240.058 408.186 240.266C408.861 241.76 409.54 243.251 410.222 244.742C412.372 249.444 414.496 254.155 416.579 258.887C418.253 262.685 419.978 266.457 421.724 270.221C423.378 273.789 425.031 277.358 426.64 280.947C426.813 281.331 426.985 281.714 427.158 282.098C427.392 282.617 427.624 283.136 427.856 283.656C427.985 283.944 428.114 284.233 428.247 284.53C428.519 285.214 428.519 285.214 428.519 285.825C418.77 285.825 409.022 285.825 398.978 285.825C398.057 283.503 397.136 281.181 396.188 278.788C395.526 277.119 394.864 275.45 394.202 273.781C393.347 271.626 392.492 269.47 391.638 267.314C390.888 265.422 390.137 263.53 389.387 261.637C389.102 260.919 388.817 260.201 388.532 259.483C386.962 255.521 385.381 251.564 383.75 247.627C383.041 249.019 382.367 250.408 381.786 251.86C381.652 252.194 381.519 252.527 381.381 252.87C381.239 253.226 381.097 253.583 380.951 253.95C380.797 254.332 380.644 254.715 380.491 255.097C380.165 255.909 379.84 256.722 379.516 257.535C379.007 258.809 378.496 260.083 377.986 261.356C377.295 263.08 376.604 264.804 375.914 266.528C374.609 269.789 373.304 273.05 371.995 276.308C371.632 277.212 371.271 278.115 370.91 279.019C370.689 279.568 370.469 280.117 370.248 280.666C370.152 280.907 370.056 281.149 369.957 281.397C369.866 281.624 369.774 281.851 369.68 282.085C369.603 282.278 369.526 282.47 369.446 282.669C368.973 283.738 368.435 284.778 367.913 285.825C358.265 285.825 348.617 285.825 338.676 285.825C339.268 284.045 339.851 282.4 340.64 280.72C340.741 280.502 340.841 280.285 340.944 280.062C341.16 279.596 341.376 279.13 341.593 278.665C342.179 277.405 342.76 276.143 343.341 274.881C343.46 274.622 343.58 274.363 343.703 274.096C344.911 271.467 346.078 268.821 347.242 266.172C348.85 262.516 350.505 258.888 352.208 255.276C353.709 252.091 355.152 248.883 356.569 245.66C358.227 241.886 359.924 238.133 361.658 234.394C362.028 233.596 362.397 232.798 362.766 232C363.006 231.48 363.246 230.961 363.486 230.441C363.603 230.188 363.72 229.936 363.841 229.675C364.498 228.253 365.16 226.834 365.824 225.415C366.208 224.594 366.587 223.771 366.965 222.947C367.22 222.396 367.48 221.847 367.74 221.298C367.89 220.969 368.04 220.641 368.194 220.303C368.325 220.023 368.455 219.743 368.59 219.454C369.11 217.571 368.402 216.02 367.587 214.33C367.492 214.13 367.397 213.93 367.299 213.724C367.093 213.293 366.886 212.863 366.678 212.433C366.116 211.269 365.563 210.101 365.008 208.933C364.894 208.694 364.78 208.454 364.662 208.207C363.533 205.833 362.445 203.441 361.365 201.044C361.177 200.627 360.988 200.209 360.8 199.791C360.515 199.16 360.23 198.528 359.945 197.897C358.864 195.499 357.774 193.105 356.683 190.712C356.582 190.491 356.482 190.271 356.378 190.044C354.682 186.321 352.979 182.602 351.274 178.883C349.635 175.308 348.007 171.729 346.39 168.145C345.372 165.89 344.347 163.639 343.298 161.398C343.205 161.198 343.111 160.998 343.015 160.791C342.572 159.843 342.127 158.896 341.679 157.949C341.524 157.619 341.369 157.288 341.209 156.947C341.072 156.657 340.935 156.368 340.794 156.07C340.503 155.34 340.503 155.34 340.503 154.423Z" fill="url(#paint11_linear_58_3)"/>
<path d="M1081.78 154.423C1104.09 154.423 1126.41 154.423 1149.39 154.423C1149.39 162.894 1149.39 171.365 1149.39 180.092C1135.93 180.092 1122.46 180.092 1108.58 180.092C1108.58 188.967 1108.58 197.841 1108.58 206.984C1120.85 206.984 1133.11 206.984 1145.74 206.984C1145.74 215.152 1145.74 223.321 1145.74 231.736C1133.48 231.736 1121.22 231.736 1108.58 231.736C1108.58 241.216 1108.58 250.695 1108.58 260.461C1122.65 260.461 1136.72 260.461 1151.22 260.461C1151.22 268.831 1151.22 277.201 1151.22 285.825C1128.31 285.825 1105.39 285.825 1081.78 285.825C1081.78 242.462 1081.78 199.1 1081.78 154.423Z" fill="url(#paint12_linear_58_3)"/>
<path d="M1263.6 154.423C1289.63 154.423 1315.66 154.423 1342.48 154.423C1342.48 162.894 1342.48 171.365 1342.48 180.092C1334.04 180.092 1325.6 180.092 1316.9 180.092C1316.9 214.984 1316.9 249.876 1316.9 285.825C1307.75 285.825 1298.61 285.825 1289.18 285.825C1289.18 250.933 1289.18 216.042 1289.18 180.092C1280.74 180.092 1272.3 180.092 1263.6 180.092C1263.6 171.622 1263.6 163.151 1263.6 154.423Z" fill="url(#paint13_linear_58_3)"/>
<path d="M241.524 58.7751C241.591 61.9275 241.393 65.0495 241.162 68.191C241.133 68.598 241.133 68.598 241.102 69.0132C239.781 86.8091 237.955 110.49 223.555 122.948C219.807 125.708 215.99 126.961 211.391 126.983C211.092 126.985 210.792 126.987 210.484 126.989C209.505 126.995 208.526 126.996 207.547 126.997C207.046 126.998 207.046 126.998 206.535 126.998C182.536 126.983 182.536 126.983 175.436 122.337C177.005 119.672 178.845 117.307 180.795 114.917C181.369 114.212 181.933 113.5 182.498 112.787C182.69 112.547 182.882 112.308 183.08 112.06C183.477 111.563 183.873 111.064 184.267 110.563C185.796 108.647 187.417 106.846 189.1 105.065C189.988 104.124 190.857 103.174 191.7 102.192C192.865 100.847 194.106 99.586 195.365 98.3293C195.582 98.1105 195.799 97.8917 196.023 97.6662C197.434 96.2523 198.891 94.9099 200.41 93.6119C192.935 97.2845 186.045 102.935 179.7 108.28C179.54 108.413 179.379 108.546 179.214 108.684C174.85 112.316 170.026 116.383 167.306 121.469C166.604 122.337 166.604 122.337 165.599 122.545C165.21 122.535 164.821 122.526 164.42 122.516C164.212 122.513 164.004 122.511 163.79 122.508C163.129 122.498 162.469 122.475 161.808 122.451C161.358 122.442 160.909 122.434 160.46 122.426C159.36 122.406 158.262 122.375 157.163 122.337C156.842 82.2638 156.842 82.2638 166.928 71.7243C170.297 68.5782 173.957 67.7957 178.387 66.9878C178.632 66.9428 178.876 66.8979 179.129 66.8516C191.642 64.5731 204.276 62.9901 216.893 61.4299C217.151 61.3981 217.408 61.3662 217.673 61.3334C223.15 60.6562 228.629 59.9989 234.113 59.3791C234.592 59.3249 235.072 59.2703 235.552 59.2154C236.213 59.14 236.875 59.0659 237.536 58.9922C237.911 58.9501 238.285 58.908 238.671 58.8646C239.628 58.7811 240.563 58.7584 241.524 58.7751Z" fill="url(#paint14_linear_58_3)"/>
<path d="M235.566 146.106C238.596 148.611 240.355 152.012 241.143 155.837C241.501 160.686 240.478 164.96 237.336 168.767C234.296 171.929 230.258 173.602 225.916 173.732C221.856 173.65 217.91 172.239 214.947 169.374C211.775 165.84 210.372 161.928 210.46 157.174C210.746 153.334 212.329 149.821 215.028 147.089C221.109 141.88 228.998 141.29 235.566 146.106Z" fill="url(#paint15_linear_58_3)"/>
<path d="M236.404 273.296C239.552 276.294 241.185 280.305 241.315 284.641C241.294 285.138 241.262 285.635 241.22 286.131C241.188 286.519 241.188 286.519 241.155 286.916C240.653 290.756 238.606 294.305 235.675 296.783C232.107 299.49 228.109 300.565 223.665 300.062C219.422 299.279 215.832 297.38 213.326 293.825C210.83 289.955 209.985 285.804 210.764 281.241C211.698 277.692 213.722 274.11 216.855 272.074C223.465 268.293 230.326 268.287 236.404 273.296Z" fill="url(#paint16_linear_58_3)"/>
<path d="M172.415 209.251C175.578 211.957 177.491 215.073 178.177 219.207C178.529 224.117 177.357 228.305 174.161 232.099C171.207 235.259 167.33 236.709 163.083 237.008C158.336 236.924 154.633 235.089 151.377 231.736C148.072 228.137 147.534 223.942 147.682 219.276C147.762 217.917 148.075 216.773 148.636 215.54C148.755 215.269 148.874 214.998 148.996 214.719C150.854 210.917 154.027 208.138 158.001 206.736C162.965 205.263 168.304 206.011 172.415 209.251Z" fill="url(#paint17_linear_58_3)"/>
<path d="M298.837 209.467C301.543 211.973 303.763 215.455 303.995 219.212C304.191 224.937 304.191 224.937 303.044 227.458C302.925 227.729 302.806 228 302.683 228.279C301.097 231.526 298.46 234.268 295.125 235.709C290.759 237.203 286.694 237.423 282.336 235.642C278.148 233.499 275.745 230.365 274.039 226.059C272.818 222.165 273.416 217.971 275.044 214.299C277.178 210.317 280.456 208.063 284.605 206.606C289.662 205.086 294.563 206.608 298.837 209.467Z" fill="url(#paint18_linear_58_3)"/>
<defs>
<linearGradient id="paint0_linear_58_3" x1="564.353" y1="-1.08336e-05" x2="873.318" y2="308.909" gradientUnits="userSpaceOnUse">
<stop stop-color="#3B82F6"/>
<stop offset="1" stop-color="#51A2FF"/>
</linearGradient>
<linearGradient id="paint1_linear_58_3" x1="564.353" y1="-1.08336e-05" x2="873.318" y2="308.909" gradientUnits="userSpaceOnUse">
<stop stop-color="#3B82F6"/>
<stop offset="1" stop-color="#51A2FF"/>
</linearGradient>
<linearGradient id="paint2_linear_58_3" x1="564.353" y1="-1.08336e-05" x2="873.318" y2="308.909" gradientUnits="userSpaceOnUse">
<stop stop-color="#3B82F6"/>
<stop offset="1" stop-color="#51A2FF"/>
</linearGradient>
<linearGradient id="paint3_linear_58_3" x1="564.353" y1="-1.08336e-05" x2="873.318" y2="308.909" gradientUnits="userSpaceOnUse">
<stop stop-color="#3B82F6"/>
<stop offset="1" stop-color="#51A2FF"/>
</linearGradient>
<linearGradient id="paint4_linear_58_3" x1="564.353" y1="-1.08336e-05" x2="873.318" y2="308.909" gradientUnits="userSpaceOnUse">
<stop stop-color="#3B82F6"/>
<stop offset="1" stop-color="#51A2FF"/>
</linearGradient>
<linearGradient id="paint5_linear_58_3" x1="564.353" y1="-1.08336e-05" x2="873.318" y2="308.909" gradientUnits="userSpaceOnUse">
<stop stop-color="#3B82F6"/>
<stop offset="1" stop-color="#51A2FF"/>
</linearGradient>
<linearGradient id="paint6_linear_58_3" x1="564.353" y1="-1.08336e-05" x2="873.318" y2="308.909" gradientUnits="userSpaceOnUse">
<stop stop-color="#3B82F6"/>
<stop offset="1" stop-color="#51A2FF"/>
</linearGradient>
<linearGradient id="paint7_linear_58_3" x1="564.353" y1="-1.08336e-05" x2="873.318" y2="308.909" gradientUnits="userSpaceOnUse">
<stop stop-color="#3B82F6"/>
<stop offset="1" stop-color="#51A2FF"/>
</linearGradient>
<linearGradient id="paint8_linear_58_3" x1="564.353" y1="-1.08336e-05" x2="873.318" y2="308.909" gradientUnits="userSpaceOnUse">
<stop stop-color="#3B82F6"/>
<stop offset="1" stop-color="#51A2FF"/>
</linearGradient>
<linearGradient id="paint9_linear_58_3" x1="564.353" y1="-1.08336e-05" x2="873.318" y2="308.909" gradientUnits="userSpaceOnUse">
<stop stop-color="#3B82F6"/>
<stop offset="1" stop-color="#51A2FF"/>
</linearGradient>
<linearGradient id="paint10_linear_58_3" x1="564.353" y1="-1.08336e-05" x2="873.318" y2="308.909" gradientUnits="userSpaceOnUse">
<stop stop-color="#3B82F6"/>
<stop offset="1" stop-color="#51A2FF"/>
</linearGradient>
<linearGradient id="paint11_linear_58_3" x1="564.353" y1="-1.08336e-05" x2="873.318" y2="308.909" gradientUnits="userSpaceOnUse">
<stop stop-color="#3B82F6"/>
<stop offset="1" stop-color="#51A2FF"/>
</linearGradient>
<linearGradient id="paint12_linear_58_3" x1="564.353" y1="-1.08336e-05" x2="873.318" y2="308.909" gradientUnits="userSpaceOnUse">
<stop stop-color="#3B82F6"/>
<stop offset="1" stop-color="#51A2FF"/>
</linearGradient>
<linearGradient id="paint13_linear_58_3" x1="564.353" y1="-1.08336e-05" x2="873.318" y2="308.909" gradientUnits="userSpaceOnUse">
<stop stop-color="#3B82F6"/>
<stop offset="1" stop-color="#51A2FF"/>
</linearGradient>
<linearGradient id="paint14_linear_58_3" x1="564.353" y1="-1.08336e-05" x2="873.318" y2="308.909" gradientUnits="userSpaceOnUse">
<stop stop-color="#3B82F6"/>
<stop offset="1" stop-color="#51A2FF"/>
</linearGradient>
<linearGradient id="paint15_linear_58_3" x1="564.353" y1="-1.08336e-05" x2="873.318" y2="308.909" gradientUnits="userSpaceOnUse">
<stop stop-color="#3B82F6"/>
<stop offset="1" stop-color="#51A2FF"/>
</linearGradient>
<linearGradient id="paint16_linear_58_3" x1="564.353" y1="-1.08336e-05" x2="873.318" y2="308.909" gradientUnits="userSpaceOnUse">
<stop stop-color="#3B82F6"/>
<stop offset="1" stop-color="#51A2FF"/>
</linearGradient>
<linearGradient id="paint17_linear_58_3" x1="564.353" y1="-1.08336e-05" x2="873.318" y2="308.909" gradientUnits="userSpaceOnUse">
<stop stop-color="#3B82F6"/>
<stop offset="1" stop-color="#51A2FF"/>
</linearGradient>
<linearGradient id="paint18_linear_58_3" x1="564.353" y1="-1.08336e-05" x2="873.318" y2="308.909" gradientUnits="userSpaceOnUse">
<stop stop-color="#3B82F6"/>
<stop offset="1" stop-color="#51A2FF"/>
</linearGradient>
</defs>
</svg>
