<svg width="40" height="40" viewBox="0 0 40 40" fill="none" xmlns="http://www.w3.org/2000/svg">
<path d="M0.00218099 0.0160227C4.99262 -0.0150112 4.99263 -0.0150112 6.64378 0.146873C6.77271 0.159511 6.90169 0.171622 7.03068 0.18371C8.29064 0.303641 9.53593 0.489989 10.779 0.730595C10.8395 0.742185 10.9 0.753776 10.9623 0.765718C13.7515 1.31009 16.5652 2.33936 18.8033 4.16054C18.8302 4.18235 18.857 4.20415 18.8846 4.22662C21.3063 6.22013 22.5966 9.00047 22.9438 12.1289C23.1735 14.4751 22.8833 16.8826 22.349 19.1665C22.209 19.1665 22.209 19.1665 22.0946 19.0549C22.0507 19.0051 22.0072 18.955 21.9641 18.9045C21.9297 18.8652 21.9297 18.8652 21.8946 18.8251C21.8279 18.7487 21.7618 18.6719 21.6958 18.5949C21.6656 18.5599 21.6354 18.5249 21.6043 18.4888C21.5528 18.4288 21.5014 18.3686 21.4502 18.3083C21.3206 18.157 21.1886 18.0081 21.0567 17.8589C20.9884 17.7816 20.9202 17.704 20.8522 17.6263C20.4151 17.1269 19.9697 16.636 19.5025 16.1657C19.3619 16.0236 19.2323 15.8768 19.1068 15.7211C19.0336 15.6379 18.9564 15.5683 18.8726 15.4964C18.5816 15.2394 18.3164 14.9557 18.0465 14.6761C17.8348 14.4581 17.6216 14.2463 17.3932 14.0466C17.2721 13.9404 17.1561 13.8291 17.0393 13.7179C16.8245 13.5153 16.6033 13.3241 16.3754 13.137C16.2453 13.0279 16.1188 12.9158 15.9926 12.8022C15.6219 12.4691 15.2375 12.1597 14.8423 11.8576C14.7483 11.7855 14.6547 11.7129 14.5612 11.6401C13.4649 10.7888 12.3197 10.0184 11.1056 9.35309C11.2442 9.5371 11.3953 9.70285 11.5566 9.86591C11.5825 9.89229 11.6084 9.91866 11.6351 9.94583C11.691 10.0028 11.747 10.0597 11.8031 10.1165C11.8921 10.2068 11.9809 10.2972 12.0697 10.3876C12.2904 10.6123 12.5113 10.8368 12.7322 11.0612C12.9189 11.2509 13.1055 11.4407 13.292 11.6306C13.379 11.7192 13.4661 11.8076 13.5533 11.896C13.7965 12.1432 14.0376 12.3895 14.259 12.6577C14.3816 12.8028 14.5172 12.9349 14.6512 13.0689C14.8538 13.2734 15.0499 13.4793 15.2342 13.7014C15.3086 13.7884 15.3869 13.8692 15.4676 13.9502C15.5746 14.0577 15.6759 14.1674 15.7738 14.2836C15.9388 14.4792 16.1112 14.6671 16.2841 14.8553C16.5064 15.0976 16.7261 15.341 16.9372 15.5937C16.978 15.6423 17.0188 15.691 17.0597 15.7396C17.1304 15.8238 17.2011 15.908 17.2717 15.9924C17.4241 16.1742 17.5774 16.3552 17.7313 16.5356C18.0012 16.8522 18.2657 17.1722 18.5234 17.4992C18.5658 17.5523 18.6082 17.6054 18.6506 17.6585C19.3216 18.5022 19.9463 19.3784 20.4858 20.3158C20.508 20.3542 20.5303 20.3926 20.5533 20.4322C20.5739 20.4686 20.5945 20.505 20.6157 20.5425C20.634 20.5746 20.6523 20.6067 20.6711 20.6398C20.7249 20.7579 20.7536 20.8461 20.7628 20.9768C20.7111 21.118 20.7111 21.118 20.631 21.2734C20.6169 21.3014 20.6028 21.3295 20.5882 21.3583C20.543 21.4479 20.497 21.5369 20.4508 21.6259C20.3909 21.7424 20.3315 21.8591 20.2724 21.9761C20.2579 22.0044 20.2435 22.0327 20.2287 22.0618C20.1189 22.2816 20.0364 22.504 19.9655 22.7395C19.9515 22.7709 19.9374 22.8023 19.923 22.8347C19.7966 22.8777 19.7102 22.8909 19.5792 22.8971C19.518 22.9 19.518 22.9 19.4555 22.903C19.4115 22.9048 19.3675 22.9066 19.3222 22.9085C19.2763 22.9105 19.2304 22.9125 19.1832 22.9146C18.7153 22.9337 18.2477 22.9386 17.7795 22.9396C17.7352 22.9398 17.6908 22.9399 17.6451 22.94C17.4095 22.9408 17.1739 22.9412 16.9383 22.9414C16.7489 22.9416 16.5595 22.9423 16.3701 22.9434C15.3481 22.9491 14.3311 22.9373 13.3112 22.8646C13.2699 22.8617 13.2287 22.8588 13.1861 22.8558C9.83111 22.6121 5.81216 21.9915 3.47181 19.2603C0.872581 15.9372 0.688854 9.80089 0.0570318 2.15587C0.049541 2.02882 0.0416338 1.9018 0.0336399 1.77477C-0.00167998 1.18843 -0.00286229 0.603335 0.00218099 0.0160227Z" fill="#03A367"/>
<path d="M0.00218099 0.0160227C4.99262 -0.0150112 4.99263 -0.0150112 6.64378 0.146873C6.77271 0.159511 6.90169 0.171622 7.03068 0.18371C8.29064 0.303641 9.53593 0.489989 10.779 0.730595C10.8395 0.742185 10.9 0.753776 10.9623 0.765718C13.7515 1.31009 16.5652 2.33936 18.8033 4.16054C18.8302 4.18235 18.857 4.20415 18.8846 4.22662C21.3063 6.22013 22.5966 9.00047 22.9438 12.1289C23.1735 14.4751 22.8833 16.8826 22.349 19.1665C22.209 19.1665 22.209 19.1665 22.0946 19.0549C22.0507 19.0051 22.0072 18.955 21.9641 18.9045C21.9297 18.8652 21.9297 18.8652 21.8946 18.8251C21.8279 18.7487 21.7618 18.6719 21.6958 18.5949C21.6656 18.5599 21.6354 18.5249 21.6043 18.4888C21.5528 18.4288 21.5014 18.3686 21.4502 18.3083C21.3206 18.157 21.1886 18.0081 21.0567 17.8589C20.9884 17.7816 20.9202 17.704 20.8522 17.6263C20.4151 17.1269 19.9697 16.636 19.5025 16.1657C19.3619 16.0236 19.2323 15.8768 19.1068 15.7211C19.0336 15.6379 18.9564 15.5683 18.8726 15.4964C18.5816 15.2394 18.3164 14.9557 18.0465 14.6761C17.8348 14.4581 17.6216 14.2463 17.3932 14.0466C17.2721 13.9404 17.1561 13.8291 17.0393 13.7179C16.8245 13.5153 16.6033 13.3241 16.3754 13.137C16.2453 13.0279 16.1188 12.9158 15.9926 12.8022C15.6219 12.4691 15.2375 12.1597 14.8423 11.8576C14.7483 11.7855 14.6547 11.7129 14.5612 11.6401C13.4649 10.7888 12.3197 10.0184 11.1056 9.35309C11.2442 9.5371 11.3953 9.70285 11.5566 9.86591C11.5825 9.89229 11.6084 9.91866 11.6351 9.94583C11.691 10.0028 11.747 10.0597 11.8031 10.1165C11.8921 10.2068 11.9809 10.2972 12.0697 10.3876C12.2904 10.6123 12.5113 10.8368 12.7322 11.0612C12.9189 11.2509 13.1055 11.4407 13.292 11.6306C13.379 11.7192 13.4661 11.8076 13.5533 11.896C13.7965 12.1432 14.0376 12.3895 14.259 12.6577C14.3816 12.8028 14.5172 12.9349 14.6512 13.0689C14.8538 13.2734 15.0499 13.4793 15.2342 13.7014C15.3086 13.7884 15.3869 13.8692 15.4676 13.9502C15.5746 14.0577 15.6759 14.1674 15.7738 14.2836C15.9388 14.4792 16.1112 14.6671 16.2841 14.8553C16.5064 15.0976 16.7261 15.341 16.9372 15.5937C16.978 15.6423 17.0188 15.691 17.0597 15.7396C17.1304 15.8238 17.2011 15.908 17.2717 15.9924C17.4241 16.1742 17.5774 16.3552 17.7313 16.5356C18.0012 16.8522 18.2657 17.1722 18.5234 17.4992C18.5658 17.5523 18.6082 17.6054 18.6506 17.6585C19.3216 18.5022 19.9463 19.3784 20.4858 20.3158C20.508 20.3542 20.5303 20.3926 20.5533 20.4322C20.5739 20.4686 20.5945 20.505 20.6157 20.5425C20.634 20.5746 20.6523 20.6067 20.6711 20.6398C20.7249 20.7579 20.7536 20.8461 20.7628 20.9768C20.7111 21.118 20.7111 21.118 20.631 21.2734C20.6169 21.3014 20.6028 21.3295 20.5882 21.3583C20.543 21.4479 20.497 21.5369 20.4508 21.6259C20.3909 21.7424 20.3315 21.8591 20.2724 21.9761C20.2579 22.0044 20.2435 22.0327 20.2287 22.0618C20.1189 22.2816 20.0364 22.504 19.9655 22.7395C19.9515 22.7709 19.9374 22.8023 19.923 22.8347C19.7966 22.8777 19.7102 22.8909 19.5792 22.8971C19.518 22.9 19.518 22.9 19.4555 22.903C19.4115 22.9048 19.3675 22.9066 19.3222 22.9085C19.2763 22.9105 19.2304 22.9125 19.1832 22.9146C18.7153 22.9337 18.2477 22.9386 17.7795 22.9396C17.7352 22.9398 17.6908 22.9399 17.6451 22.94C17.4095 22.9408 17.1739 22.9412 16.9383 22.9414C16.7489 22.9416 16.5595 22.9423 16.3701 22.9434C15.3481 22.9491 14.3311 22.9373 13.3112 22.8646C13.2699 22.8617 13.2287 22.8588 13.1861 22.8558C9.83111 22.6121 5.81216 21.9915 3.47181 19.2603C0.872581 15.9372 0.688854 9.80089 0.0570318 2.15587C0.049541 2.02882 0.0416338 1.9018 0.0336399 1.77477C-0.00167998 1.18843 -0.00286229 0.603335 0.00218099 0.0160227Z" fill="url(#paint0_linear_59_13)"/>
<path d="M14.5033 24.9214C14.6749 24.922 14.8465 24.9219 15.0181 24.9219C15.1854 24.9219 15.3526 24.9222 15.5199 24.9225C15.5988 24.9227 15.6776 24.9228 15.7565 24.9228C16.1676 24.9232 16.575 24.9285 16.9839 24.9784C16.7203 25.3027 16.4393 25.606 16.1248 25.8794C15.8564 26.1188 15.6068 26.3777 15.3552 26.6351C15.3021 26.6893 15.2491 26.7434 15.196 26.7976C15.0853 26.9105 14.9747 27.0236 14.8641 27.1367C14.7234 27.2807 14.5824 27.4245 14.4413 27.5683C14.3318 27.6799 14.2225 27.7916 14.1131 27.9034C14.0612 27.9564 14.0093 28.0094 13.9573 28.0624C13.7044 28.3202 13.454 28.5781 13.2224 28.8564C13.129 28.9672 13.0276 29.0686 12.9251 29.1706C12.7605 29.3368 12.6044 29.5062 12.454 29.6858C12.3649 29.7902 12.2733 29.892 12.181 29.9934C11.9194 30.2815 11.6712 30.5775 11.4322 30.8855C11.413 30.9099 11.3938 30.9343 11.374 30.9594C10.8451 31.6232 10.8451 31.6232 10.5458 32.4099C10.6839 32.3073 10.7986 32.1996 10.9073 32.0662C11.1594 31.769 11.4351 31.4947 11.7077 31.2173C11.8022 31.121 11.8965 31.0244 11.9908 30.9279C12.2786 30.6338 12.5656 30.3423 12.8784 30.0757C12.9255 30.0339 12.9726 29.9921 13.0196 29.9503C14.7921 28.4003 16.7928 27.1414 18.8908 26.1068C18.9458 26.0797 19.0007 26.0525 19.0573 26.0246C19.4445 25.8359 19.4445 25.8359 19.5498 25.8359C20.5685 28.3115 20.869 31.1168 19.8763 33.6485C19.5229 34.5236 19.0301 35.2653 18.4301 35.9828C18.3943 36.0262 18.3585 36.0695 18.3217 36.1142C18.1253 36.3466 17.9151 36.5495 17.6837 36.745C17.6498 36.7754 17.6159 36.8057 17.5811 36.8369C15.4985 38.6436 11.7785 38.7197 9.17066 38.8814C9.05472 38.8886 8.93881 38.8962 8.8229 38.9038C6.64912 39.0427 4.46495 38.993 2.28818 38.984C2.2538 38.7949 2.23533 38.6154 2.23401 38.4232C2.23357 38.3699 2.23312 38.3166 2.23267 38.2617C2.23246 38.2044 2.23226 38.1472 2.23205 38.0882C2.23172 38.0282 2.23139 37.9682 2.23106 37.9064C2.23024 37.7118 2.22992 37.5172 2.22986 37.3226C2.22984 37.2896 2.22982 37.2566 2.2298 37.2226C2.22947 36.2311 2.23975 35.2509 2.38148 34.2678C2.38949 34.2111 2.39749 34.1543 2.40574 34.0958C2.46472 33.6904 2.53576 33.2882 2.61475 32.8863C2.63131 32.8015 2.63131 32.8015 2.64821 32.715C2.92042 31.3556 3.33263 29.9947 3.92103 28.7418C3.94575 28.6891 3.97047 28.6364 3.99593 28.5821C4.15279 28.2704 4.35204 28.0074 4.57417 27.7414C4.60021 27.7073 4.62625 27.6732 4.65308 27.6381C6.02625 25.916 8.6401 25.3834 10.6653 25.1094C10.7181 25.1022 10.7708 25.095 10.8252 25.0876C11.0117 25.0641 11.1984 25.0442 11.3855 25.026C11.4277 25.0218 11.4699 25.0177 11.5134 25.0134C12.5099 24.9183 13.5034 24.9176 14.5033 24.9214Z" fill="#03A367"/>
<path d="M14.5033 24.9214C14.6749 24.922 14.8465 24.9219 15.0181 24.9219C15.1854 24.9219 15.3526 24.9222 15.5199 24.9225C15.5988 24.9227 15.6776 24.9228 15.7565 24.9228C16.1676 24.9232 16.575 24.9285 16.9839 24.9784C16.7203 25.3027 16.4393 25.606 16.1248 25.8794C15.8564 26.1188 15.6068 26.3777 15.3552 26.6351C15.3021 26.6893 15.2491 26.7434 15.196 26.7976C15.0853 26.9105 14.9747 27.0236 14.8641 27.1367C14.7234 27.2807 14.5824 27.4245 14.4413 27.5683C14.3318 27.6799 14.2225 27.7916 14.1131 27.9034C14.0612 27.9564 14.0093 28.0094 13.9573 28.0624C13.7044 28.3202 13.454 28.5781 13.2224 28.8564C13.129 28.9672 13.0276 29.0686 12.9251 29.1706C12.7605 29.3368 12.6044 29.5062 12.454 29.6858C12.3649 29.7902 12.2733 29.892 12.181 29.9934C11.9194 30.2815 11.6712 30.5775 11.4322 30.8855C11.413 30.9099 11.3938 30.9343 11.374 30.9594C10.8451 31.6232 10.8451 31.6232 10.5458 32.4099C10.6839 32.3073 10.7986 32.1996 10.9073 32.0662C11.1594 31.769 11.4351 31.4947 11.7077 31.2173C11.8022 31.121 11.8965 31.0244 11.9908 30.9279C12.2786 30.6338 12.5656 30.3423 12.8784 30.0757C12.9255 30.0339 12.9726 29.9921 13.0196 29.9503C14.7921 28.4003 16.7928 27.1414 18.8908 26.1068C18.9458 26.0797 19.0007 26.0525 19.0573 26.0246C19.4445 25.8359 19.4445 25.8359 19.5498 25.8359C20.5685 28.3115 20.869 31.1168 19.8763 33.6485C19.5229 34.5236 19.0301 35.2653 18.4301 35.9828C18.3943 36.0262 18.3585 36.0695 18.3217 36.1142C18.1253 36.3466 17.9151 36.5495 17.6837 36.745C17.6498 36.7754 17.6159 36.8057 17.5811 36.8369C15.4985 38.6436 11.7785 38.7197 9.17066 38.8814C9.05472 38.8886 8.93881 38.8962 8.8229 38.9038C6.64912 39.0427 4.46495 38.993 2.28818 38.984C2.2538 38.7949 2.23533 38.6154 2.23401 38.4232C2.23357 38.3699 2.23312 38.3166 2.23267 38.2617C2.23246 38.2044 2.23226 38.1472 2.23205 38.0882C2.23172 38.0282 2.23139 37.9682 2.23106 37.9064C2.23024 37.7118 2.22992 37.5172 2.22986 37.3226C2.22984 37.2896 2.22982 37.2566 2.2298 37.2226C2.22947 36.2311 2.23975 35.2509 2.38148 34.2678C2.38949 34.2111 2.39749 34.1543 2.40574 34.0958C2.46472 33.6904 2.53576 33.2882 2.61475 32.8863C2.63131 32.8015 2.63131 32.8015 2.64821 32.715C2.92042 31.3556 3.33263 29.9947 3.92103 28.7418C3.94575 28.6891 3.97047 28.6364 3.99593 28.5821C4.15279 28.2704 4.35204 28.0074 4.57417 27.7414C4.60021 27.7073 4.62625 27.6732 4.65308 27.6381C6.02625 25.916 8.6401 25.3834 10.6653 25.1094C10.7181 25.1022 10.7708 25.095 10.8252 25.0876C11.0117 25.0641 11.1984 25.0442 11.3855 25.026C11.4277 25.0218 11.4699 25.0177 11.5134 25.0134C12.5099 24.9183 13.5034 24.9176 14.5033 24.9214Z" fill="url(#paint1_linear_59_13)"/>
<path d="M36.998 9.16254C37.0082 9.65397 36.9778 10.1407 36.9426 10.6304C36.938 10.6938 36.938 10.6938 36.9334 10.7586C36.731 13.5328 36.4513 17.2244 34.2455 19.1665C33.6712 19.5968 33.0865 19.7921 32.3821 19.7955C32.3362 19.7959 32.2903 19.7962 32.2431 19.7965C32.0931 19.7974 31.9432 19.7977 31.7933 19.7978C31.7165 19.7978 31.7165 19.7978 31.6382 19.7979C27.9619 19.7956 27.9619 19.7956 26.8743 19.0713C27.1145 18.6558 27.3965 18.2872 27.6952 17.9146C27.7831 17.8047 27.8696 17.6937 27.9561 17.5826C27.9855 17.5452 28.0149 17.5078 28.0452 17.4693C28.1061 17.3917 28.1667 17.3139 28.227 17.2359C28.4612 16.9371 28.7096 16.6563 28.9673 16.3787C29.1034 16.232 29.2365 16.0839 29.3657 15.9309C29.5442 15.7211 29.7342 15.5246 29.9271 15.3287C29.9604 15.2946 29.9936 15.2605 30.0278 15.2253C30.2441 15.0049 30.4673 14.7956 30.6998 14.5933C29.5548 15.1658 28.4994 16.0467 27.5274 16.8799C27.5029 16.9007 27.4783 16.9215 27.453 16.9429C26.7845 17.509 26.0455 18.1431 25.6289 18.936C25.5214 19.0713 25.5214 19.0713 25.3674 19.1037C25.3078 19.1022 25.2482 19.1007 25.1868 19.0992C25.1549 19.0988 25.1231 19.0984 25.0903 19.098C24.989 19.0964 24.8878 19.0928 24.7866 19.0891C24.7177 19.0877 24.6489 19.0864 24.5801 19.0852C24.4117 19.0821 24.2434 19.0772 24.0751 19.0713C24.0259 12.8242 24.0259 12.8242 25.5709 11.1812C26.0871 10.6908 26.6476 10.5688 27.3262 10.4428C27.3638 10.4358 27.4013 10.4288 27.4399 10.4216C29.3567 10.0664 31.2921 9.81962 33.2249 9.5764C33.2643 9.57143 33.3038 9.56647 33.3444 9.56136C34.1833 9.45578 35.0227 9.35332 35.8627 9.2567C35.9361 9.24824 36.0096 9.23974 36.0831 9.23118C36.1844 9.21941 36.2857 9.20786 36.3871 9.19638C36.4445 9.18981 36.5018 9.18325 36.5609 9.17649C36.7076 9.16347 36.8508 9.15993 36.998 9.16254Z" fill="#03A367"/>
<path d="M36.998 9.16254C37.0082 9.65397 36.9778 10.1407 36.9426 10.6304C36.938 10.6938 36.938 10.6938 36.9334 10.7586C36.731 13.5328 36.4513 17.2244 34.2455 19.1665C33.6712 19.5968 33.0865 19.7921 32.3821 19.7955C32.3362 19.7959 32.2903 19.7962 32.2431 19.7965C32.0931 19.7974 31.9432 19.7977 31.7933 19.7978C31.7165 19.7978 31.7165 19.7978 31.6382 19.7979C27.9619 19.7956 27.9619 19.7956 26.8743 19.0713C27.1145 18.6558 27.3965 18.2872 27.6952 17.9146C27.7831 17.8047 27.8696 17.6937 27.9561 17.5826C27.9855 17.5452 28.0149 17.5078 28.0452 17.4693C28.1061 17.3917 28.1667 17.3139 28.227 17.2359C28.4612 16.9371 28.7096 16.6563 28.9673 16.3787C29.1034 16.232 29.2365 16.0839 29.3657 15.9309C29.5442 15.7211 29.7342 15.5246 29.9271 15.3287C29.9604 15.2946 29.9936 15.2605 30.0278 15.2253C30.2441 15.0049 30.4673 14.7956 30.6998 14.5933C29.5548 15.1658 28.4994 16.0467 27.5274 16.8799C27.5029 16.9007 27.4783 16.9215 27.453 16.9429C26.7845 17.509 26.0455 18.1431 25.6289 18.936C25.5214 19.0713 25.5214 19.0713 25.3674 19.1037C25.3078 19.1022 25.2482 19.1007 25.1868 19.0992C25.1549 19.0988 25.1231 19.0984 25.0903 19.098C24.989 19.0964 24.8878 19.0928 24.7866 19.0891C24.7177 19.0877 24.6489 19.0864 24.5801 19.0852C24.4117 19.0821 24.2434 19.0772 24.0751 19.0713C24.0259 12.8242 24.0259 12.8242 25.5709 11.1812C26.0871 10.6908 26.6476 10.5688 27.3262 10.4428C27.3638 10.4358 27.4013 10.4288 27.4399 10.4216C29.3567 10.0664 31.2921 9.81962 33.2249 9.5764C33.2643 9.57143 33.3038 9.56647 33.3444 9.56136C34.1833 9.45578 35.0227 9.35332 35.8627 9.2567C35.9361 9.24824 36.0096 9.23974 36.0831 9.23118C36.1844 9.21941 36.2857 9.20786 36.3871 9.19638C36.4445 9.18981 36.5018 9.18325 36.5609 9.17649C36.7076 9.16347 36.8508 9.15993 36.998 9.16254Z" fill="url(#paint2_linear_59_13)"/>
<defs>
<linearGradient id="paint0_linear_59_13" x1="18.5" y1="0" x2="18.5" y2="39" gradientUnits="userSpaceOnUse">
<stop stop-color="#3B82F6"/>
<stop offset="1" stop-color="#51A2FF"/>
</linearGradient>
<linearGradient id="paint1_linear_59_13" x1="18.5" y1="0" x2="18.5" y2="39" gradientUnits="userSpaceOnUse">
<stop stop-color="#3B82F6"/>
<stop offset="1" stop-color="#51A2FF"/>
</linearGradient>
<linearGradient id="paint2_linear_59_13" x1="18.5" y1="0" x2="18.5" y2="39" gradientUnits="userSpaceOnUse">
<stop stop-color="#3B82F6"/>
<stop offset="1" stop-color="#51A2FF"/>
</linearGradient>
</defs>
</svg>
